<?xml version="1.0" encoding="utf-8"?>
<!-- Generator: Adobe Illustrator 26.0.2, SVG Export Plug-In . SVG Version: 6.00 Build 0)  -->
<svg version="1.1" id="Layer_1" xmlns="http://www.w3.org/2000/svg" xmlns:xlink="http://www.w3.org/1999/xlink" x="0px" y="0px"
	 viewBox="0 0 293.69 187.87" style="enable-background:new 0 0 293.69 187.87;" xml:space="preserve">
<style type="text/css">
	.st0{fill:#F8D56B;}
	.st1{fill:#FFFFFF;}
	.st2{fill:#63B3DB;}
</style>
<g>
	<g>
		<circle class="st0" cx="89.34" cy="93.93" r="64.74"/>
	</g>
	<g>
		<path class="st1" d="M99.16,40c-30.67-17.25-64.79,16.54-67.2,52.73C42.29,63.43,122.85,53.32,99.16,40z"/>
	</g>
	<g>
		<polygon class="st0" points="89.34,0 78.31,31.36 89.34,31.36 89.34,31.36 100.37,31.36 		"/>
	</g>
	<g>
		<polygon class="st0" points="34.12,17.94 43.64,49.79 52.56,43.31 52.56,43.31 61.48,36.83 		"/>
	</g>
	<g>
		<polygon class="st0" points="0,64.91 26.42,85.09 29.83,74.6 29.83,74.6 33.23,64.11 		"/>
	</g>
	<g>
		<polygon class="st0" points="0,122.96 33.23,123.76 29.83,113.27 29.83,113.27 26.42,102.78 		"/>
	</g>
	<g>
		<polygon class="st0" points="34.12,169.93 61.48,151.04 52.56,144.56 52.56,144.56 43.64,138.08 		"/>
	</g>
	<g>
		<polygon class="st0" points="89.34,187.87 100.37,156.51 89.34,156.51 89.34,156.51 78.31,156.51 		"/>
	</g>
	<g>
		<polygon class="st0" points="144.55,169.93 135.04,138.08 126.12,144.56 126.12,144.56 117.19,151.04 		"/>
	</g>
	<g>
		<polygon class="st0" points="178.67,122.96 152.26,102.78 148.85,113.27 148.85,113.27 145.44,123.76 		"/>
	</g>
	<g>
		<polygon class="st0" points="178.67,64.91 145.44,64.11 148.85,74.6 148.85,74.6 152.26,85.09 		"/>
	</g>
	<g>
		<polygon class="st0" points="144.55,17.94 117.19,36.83 126.12,43.31 126.12,43.31 135.04,49.79 		"/>
	</g>
</g>
<g>
	<g>
		<path class="st2" d="M276.42,130.87c1.9-5.16,2.94-10.74,2.94-16.56c0-26.46-21.45-47.92-47.92-47.92
			c-21.47,0-39.64,14.12-45.74,33.59c-7.51-7.78-18.05-12.62-29.71-12.62c-22.61,0-40.96,18.15-41.31,40.68
			c-3.64-2.06-7.84-3.23-12.32-3.23c-13.87,0-25.12,11.24-25.12,25.12c0,13.87,11.24,25.12,25.12,25.12h168.96
			c12.36,0,22.38-10.02,22.38-22.38C293.69,142.06,286.32,133.19,276.42,130.87z"/>
	</g>
</g>
</svg>
